<?xml version="1.0" standalone="no"?>
<!DOCTYPE svg PUBLIC "-//W3C//DTD SVG 20010904//EN"
 "http://www.w3.org/TR/2001/REC-SVG-20010904/DTD/svg10.dtd">
<svg version="1.0" xmlns="http://www.w3.org/2000/svg"
 width="3000.000000pt" height="3000.000000pt" viewBox="0 0 3000.000000 3000.000000"
 preserveAspectRatio="xMidYMid meet">
<metadata>
Created by potrace 1.14, written by Peter Selinger 2001-2017
</metadata>
<g transform="translate(0.000000,3000.000000) scale(0.100000,-0.100000)"
fill="#000000" stroke="none">
<path d="M23708 18345 c-1 -1 -68 -6 -148 -10 -80 -4 -147 -8 -150 -10 -3 -2
-30 -6 -60 -10 -87 -10 -110 -14 -225 -41 -11 -3 -31 -7 -45 -10 -14 -3 -34
-8 -45 -11 -11 -4 -24 -8 -30 -9 -77 -14 -322 -107 -446 -169 -389 -193 -669
-425 -974 -807 -73 -91 -206 -309 -283 -463 -141 -284 -258 -640 -302 -920 -6
-38 -13 -81 -15 -95 -8 -49 -15 -106 -22 -165 -10 -86 -10 -500 0 -565 5 -30
10 -66 12 -80 3 -21 13 -102 31 -255 2 -16 6 -41 8 -54 3 -13 8 -49 12 -80 3
-31 8 -58 9 -61 2 -3 6 -26 10 -50 3 -25 20 -99 36 -165 16 -66 32 -129 34
-141 24 -108 161 -460 230 -589 15 -27 39 -72 53 -100 86 -163 265 -411 407
-564 338 -363 752 -619 1190 -737 79 -21 113 -29 200 -48 19 -3 97 -15 155
-22 196 -25 501 -20 705 11 17 3 48 7 70 10 62 10 265 54 320 72 407 125 727
315 1015 603 187 186 313 349 454 584 218 364 379 791 441 1168 3 18 7 44 10
58 3 14 7 45 10 70 3 25 7 54 9 65 21 110 30 650 13 800 -5 39 -10 86 -12 105
-3 19 -7 58 -10 85 -12 96 -66 377 -91 473 -178 673 -539 1228 -1047 1610
-327 246 -708 412 -1097 476 -135 23 -151 24 -285 31 -66 4 -125 8 -132 10 -6
2 -13 2 -15 0z m35 -295 c92 -17 250 -76 371 -139 563 -291 951 -793 1145
-1482 49 -175 101 -406 116 -514 3 -22 8 -51 10 -65 3 -14 7 -47 11 -75 3 -27
7 -61 10 -75 26 -159 25 -740 -1 -890 -2 -14 -7 -45 -10 -70 -6 -45 -11 -78
-19 -115 -2 -11 -7 -40 -11 -65 -13 -82 -74 -316 -116 -447 -79 -243 -188
-488 -321 -723 -246 -432 -510 -729 -851 -956 -145 -97 -192 -116 -285 -115
-172 2 -510 128 -717 266 -147 99 -308 243 -410 366 -79 96 -137 177 -224 314
-62 97 -185 354 -246 515 -22 57 -65 180 -70 200 -2 8 -11 40 -20 70 -19 66
-17 59 -48 190 -14 58 -27 121 -31 140 -3 19 -8 46 -11 60 -3 14 -7 39 -10 55
-8 61 -16 111 -20 135 -3 14 -8 57 -11 95 -4 39 -8 84 -10 100 -7 60 -18 322
-18 410 0 106 12 371 18 400 2 11 7 49 10 85 4 36 11 90 16 120 5 30 12 71 15
90 5 34 19 108 31 160 3 14 7 36 10 50 23 110 111 394 154 496 12 27 26 62 33
79 7 16 39 84 71 150 143 291 350 580 576 805 106 106 244 229 293 263 173
117 358 155 570 117z"/>
<path d="M10982 18250 l-44 -5 54 -71 c29 -38 118 -155 198 -259 217 -283 347
-464 373 -520 53 -111 50 23 51 -2657 l1 -2498 262 0 263 0 2 2249 3 2250 30
-15 c17 -8 46 -36 65 -62 28 -39 136 -178 187 -242 7 -8 88 -112 180 -231 92
-118 180 -231 195 -250 14 -19 56 -72 93 -119 36 -47 71 -92 78 -100 15 -19
327 -421 425 -549 41 -53 83 -114 94 -135 22 -42 264 -663 728 -1866 94 -245
186 -483 204 -530 18 -47 55 -143 82 -213 27 -70 58 -138 69 -151 38 -44 58
-48 228 -46 155 2 528 0 612 -3 75 -2 121 11 141 40 18 27 19 113 19 2992 -1
2681 -2 2964 -16 2975 -11 8 -87 11 -250 9 -129 0 -241 -2 -249 -2 -13 -1 -15
-249 -15 -2170 l0 -2169 -35 30 c-38 33 -106 103 -263 272 -56 60 -122 130
-146 155 -23 25 -89 95 -145 155 -55 60 -114 124 -131 142 -16 17 -73 78 -125
134 -52 56 -111 119 -130 140 -193 207 -250 279 -291 370 -21 46 -194 489
-314 800 -37 96 -73 189 -80 205 -7 17 -46 118 -87 225 -41 107 -79 204 -83
215 -5 11 -9 22 -10 25 -1 3 -7 19 -14 35 -6 17 -122 318 -257 670 -135 352
-255 662 -267 688 -11 27 -35 58 -52 70 l-30 22 -780 0 c-429 0 -799 -2 -823
-5z"/>
<path d="M16305 18225 c-3 -16 -33 -175 -65 -352 -33 -177 -62 -333 -65 -345
-2 -13 -7 -34 -9 -48 -10 -62 -19 -110 -32 -177 -8 -39 -17 -88 -20 -109 -3
-20 -8 -46 -10 -58 -14 -72 -16 -86 -10 -86 3 0 193 95 423 211 1502 759 1393
706 1407 686 8 -10 17 -41 21 -70 4 -29 9 -61 11 -72 2 -11 8 -51 13 -90 6
-38 13 -80 15 -91 5 -25 8 -43 36 -224 11 -74 23 -142 25 -150 2 -8 7 -35 10
-60 3 -25 7 -56 9 -70 3 -14 7 -43 11 -65 3 -22 12 -78 20 -125 7 -47 16 -102
19 -122 15 -96 18 -121 36 -233 11 -66 33 -208 50 -315 17 -107 33 -213 37
-235 3 -22 7 -49 8 -60 2 -11 8 -47 13 -80 6 -33 13 -76 16 -95 3 -19 12 -71
21 -115 31 -156 37 -257 22 -375 -7 -57 -16 -124 -22 -175 -2 -16 -9 -70 -15
-120 -6 -49 -13 -101 -15 -115 -7 -46 -15 -105 -20 -150 -3 -25 -8 -56 -10
-70 -2 -14 -7 -49 -10 -79 -4 -30 -8 -61 -10 -70 -1 -9 -6 -38 -9 -66 -4 -27
-8 -61 -11 -75 -2 -14 -7 -47 -10 -75 -3 -27 -8 -61 -10 -75 -2 -14 -6 -45 -9
-70 -3 -25 -7 -54 -10 -65 -2 -11 -7 -42 -10 -70 -4 -27 -11 -79 -17 -115 -17
-116 -18 -124 -30 -215 -6 -49 -13 -97 -14 -105 -7 -38 -20 -133 -30 -215 -4
-27 -10 -77 -15 -110 -5 -33 -12 -82 -15 -109 -4 -28 -8 -52 -10 -55 -1 -3 -6
-37 -10 -76 -3 -38 -8 -72 -10 -75 -1 -3 -6 -34 -10 -70 -4 -36 -8 -67 -10
-70 -1 -3 -6 -36 -10 -75 -4 -38 -8 -72 -10 -75 -1 -3 -6 -30 -9 -60 -4 -30
-8 -66 -11 -80 -16 -96 -36 -272 -31 -277 9 -9 1298 -10 1318 -1 16 8 18 44 4
124 -3 16 -8 52 -11 79 -3 28 -10 75 -15 105 -5 30 -12 75 -14 100 -3 25 -9
74 -15 110 -6 36 -13 88 -17 115 -3 28 -8 57 -9 65 -2 9 -6 43 -10 75 -4 33
-9 69 -11 80 -2 11 -6 40 -9 65 -3 25 -8 56 -10 70 -3 14 -7 48 -11 75 -3 28
-8 59 -10 70 -4 20 -8 48 -19 135 -3 25 -7 56 -10 70 -5 31 -66 464 -70 505
-2 17 -6 44 -9 60 -3 17 -8 50 -11 75 -3 25 -8 56 -10 70 -2 14 -7 50 -10 80
-4 30 -9 62 -10 70 -2 8 -6 38 -9 65 -17 122 -36 259 -41 295 -2 14 -7 43 -9
65 -3 22 -13 78 -21 125 -43 236 -51 376 -29 515 7 50 16 108 18 130 6 45 25
187 31 225 2 14 7 45 10 70 3 25 8 56 10 70 7 41 34 222 40 264 3 21 7 48 10
60 5 24 14 84 21 136 2 19 6 46 9 60 3 14 7 39 9 55 3 17 17 102 31 190 15 88
28 174 30 190 5 34 15 100 21 130 2 11 7 40 10 65 3 25 7 52 9 60 3 8 7 33 10
55 3 22 8 51 10 65 5 28 8 46 30 185 9 55 18 114 21 130 3 17 7 41 9 55 2 14
6 36 9 50 3 14 8 43 11 65 3 22 7 47 10 55 2 8 6 33 10 54 3 22 7 41 9 43 3 4
174 -82 1281 -643 297 -150 544 -273 549 -274 7 0 6 12 -8 85 -2 11 -11 58
-20 105 -23 127 -23 127 -45 240 -11 58 -23 121 -26 140 -3 19 -15 80 -25 135
-11 55 -31 169 -45 254 -28 165 -41 201 -82 228 -26 17 -145 18 -2254 18
l-2227 0 -7 -30z"/>
<path d="M3805 18225 c-2 -11 -7 -38 -11 -60 -4 -22 -8 -44 -9 -50 -2 -5 -6
-28 -9 -50 -4 -22 -8 -47 -11 -55 -2 -8 -6 -33 -10 -55 -3 -22 -19 -110 -35
-195 -16 -85 -32 -171 -35 -190 -3 -19 -12 -69 -20 -110 -16 -84 -26 -135 -30
-165 -2 -11 -13 -69 -25 -129 -12 -59 -19 -110 -16 -113 2 -3 244 117 538 265
293 148 703 356 911 461 241 122 379 186 381 178 14 -46 29 -120 47 -237 12
-74 22 -142 24 -150 1 -8 6 -35 10 -60 4 -25 9 -54 11 -65 5 -25 55 -323 58
-350 2 -11 7 -42 11 -70 4 -27 9 -61 11 -75 6 -30 23 -135 29 -170 9 -58 45
-308 50 -345 2 -22 7 -51 10 -65 2 -14 7 -46 10 -72 7 -62 13 -107 30 -203 8
-44 17 -98 20 -120 3 -23 7 -52 10 -65 7 -36 17 -101 20 -135 2 -16 6 -43 9
-60 3 -16 8 -59 11 -95 3 -36 8 -78 10 -95 7 -49 7 -336 0 -390 -10 -85 -13
-103 -54 -350 -22 -132 -43 -260 -46 -285 -3 -25 -8 -52 -10 -60 -2 -8 -7 -35
-10 -60 -3 -25 -14 -103 -25 -175 -10 -71 -21 -152 -25 -180 -3 -27 -8 -63
-10 -80 -8 -51 -15 -104 -21 -153 -3 -26 -7 -58 -9 -72 -2 -14 -7 -50 -10 -80
-3 -30 -8 -66 -10 -80 -2 -14 -9 -63 -15 -110 -15 -116 -21 -161 -25 -190 -2
-14 -6 -52 -10 -85 -4 -32 -9 -68 -11 -80 -2 -11 -6 -40 -9 -65 -5 -42 -12
-91 -20 -150 -22 -157 -33 -234 -40 -295 -3 -27 -8 -61 -10 -75 -4 -24 -8 -55
-20 -152 -3 -24 -8 -60 -11 -80 l-6 -38 671 0 c632 0 671 1 671 18 0 15 -9 78
-25 182 -10 66 -54 385 -60 435 -4 28 -8 61 -11 75 -2 14 -6 45 -10 70 -3 25
-9 70 -14 100 -5 30 -12 78 -15 105 -3 28 -10 77 -15 110 -16 110 -22 150 -25
180 -2 17 -6 48 -9 70 -4 22 -8 54 -10 70 -15 107 -19 132 -22 149 -2 10 -6
44 -10 75 -3 31 -8 58 -9 61 -2 3 -6 37 -10 75 -3 39 -8 77 -10 85 -2 8 -7 38
-10 65 -4 28 -8 61 -10 75 -4 24 -51 370 -60 439 -2 18 -7 52 -10 75 -13 93
-25 183 -30 221 -3 22 -7 60 -10 85 -3 25 -8 77 -12 115 -10 86 -9 370 0 445
14 107 17 126 23 179 3 30 7 61 9 70 2 9 7 44 11 76 4 33 8 62 9 65 1 3 5 30
9 60 5 30 10 64 12 75 3 11 7 38 9 60 3 22 15 92 26 155 11 63 23 131 25 150
3 19 9 55 14 80 5 25 16 92 25 150 17 115 21 138 35 220 5 30 12 73 15 95 3
23 8 52 10 65 3 14 8 45 11 70 3 25 8 54 10 65 2 10 6 37 9 60 3 22 10 63 15
90 9 52 18 105 26 165 4 29 14 95 39 239 2 13 7 45 11 70 10 67 13 83 18 88 2
3 204 -97 448 -220 1158 -586 1380 -698 1385 -694 4 4 -5 62 -22 147 -3 14 -8
39 -10 55 -3 17 -13 68 -21 115 -9 47 -18 96 -20 110 -2 14 -7 36 -9 50 -3 14
-7 36 -10 50 -3 14 -10 50 -16 80 -5 30 -12 66 -14 80 -6 35 -73 395 -85 455
l-10 50 -2261 0 c-2255 0 -2260 0 -2264 -20z"/>
<path d="M8991 18242 c-4 -1 -2 -35 5 -75 12 -73 14 -82 34 -222 7 -44 13 -87
15 -95 2 -8 8 -51 15 -95 6 -44 13 -91 16 -105 2 -14 7 -47 10 -75 4 -27 8
-53 10 -56 2 -4 6 -27 9 -50 3 -24 12 -87 21 -139 8 -52 17 -106 19 -120 2
-14 13 -90 25 -170 12 -80 23 -156 26 -170 2 -14 9 -56 14 -95 6 -38 13 -81
15 -95 5 -32 23 -143 30 -195 4 -22 8 -51 10 -65 3 -14 7 -43 10 -65 3 -22 8
-51 10 -65 3 -14 7 -43 11 -65 3 -22 9 -67 14 -100 5 -33 12 -78 15 -100 7
-51 14 -93 20 -125 3 -14 7 -36 10 -50 2 -14 11 -65 20 -115 25 -140 29 -181
30 -310 0 -106 -9 -232 -20 -275 -2 -8 -7 -42 -10 -75 -4 -33 -8 -71 -10 -85
-3 -14 -7 -47 -10 -75 -3 -27 -8 -61 -10 -75 -4 -23 -30 -220 -40 -300 -2 -19
-7 -57 -11 -85 -3 -27 -8 -57 -9 -66 -2 -9 -6 -40 -10 -70 -3 -30 -10 -79 -15
-109 -5 -30 -12 -77 -15 -105 -3 -27 -11 -79 -16 -115 -6 -36 -12 -76 -14 -90
-3 -35 -13 -108 -30 -220 -8 -52 -17 -115 -20 -140 -3 -25 -8 -52 -10 -60 -2
-8 -6 -40 -9 -70 -3 -30 -8 -64 -10 -75 -2 -11 -7 -42 -10 -70 -4 -27 -9 -61
-11 -75 -2 -14 -7 -45 -11 -70 -3 -25 -7 -54 -9 -65 -2 -11 -6 -42 -9 -70 -3
-27 -8 -61 -11 -75 -4 -24 -8 -50 -20 -152 -5 -40 -12 -90 -20 -148 -4 -25 -8
-59 -21 -160 -3 -30 -8 -62 -9 -70 -2 -8 -6 -44 -10 -80 l-7 -65 672 0 672 0
-7 41 c-3 22 -8 52 -10 65 -2 13 -16 105 -30 204 -14 99 -28 191 -30 205 -2
14 -6 48 -10 75 -3 28 -8 61 -10 75 -2 14 -9 63 -15 110 -6 47 -13 97 -15 111
-3 14 -11 77 -20 140 -8 63 -17 123 -19 134 -2 11 -7 45 -11 75 -8 67 -12 92
-20 150 -11 75 -14 93 -20 140 -3 25 -8 56 -10 70 -2 14 -7 50 -10 80 -4 30
-9 62 -10 71 -2 9 -6 40 -10 70 -3 30 -10 79 -15 109 -5 30 -12 78 -15 105 -3
28 -8 64 -11 81 -3 17 -6 46 -8 65 -4 35 -24 184 -31 229 -2 14 -13 95 -25
180 -12 85 -23 166 -25 180 -3 14 -8 45 -11 70 -3 25 -8 54 -10 65 -21 103
-21 356 0 460 2 11 7 49 11 85 4 36 8 67 10 70 1 3 6 36 10 75 4 38 8 72 10
75 2 3 6 34 10 70 4 36 8 67 10 70 2 3 6 28 9 55 11 83 17 119 21 135 2 8 7
42 11 75 3 33 8 62 9 65 2 3 6 26 10 50 3 25 13 88 21 140 9 52 17 106 19 120
3 22 12 76 31 195 2 17 9 55 14 85 5 30 12 75 15 100 3 25 8 52 10 60 4 14 12
65 20 130 2 17 6 43 9 58 3 15 8 45 11 67 2 22 6 49 9 60 2 11 6 41 10 66 4
25 9 57 11 70 4 25 11 71 21 137 3 20 9 62 14 92 5 30 12 71 14 90 6 44 19
129 51 328 2 12 1 22 -3 23 -20 2 -1323 4 -1331 1z"/>
<path d="M18200 11782 c-57 -7 -105 -14 -106 -15 -4 -4 -6 -32 -5 -59 1 -24 6
-27 53 -35 l53 -8 0 -498 0 -498 -25 -5 c-54 -12 -66 -21 -64 -50 1 -16 3 -35
3 -41 1 -16 390 -19 392 -3 2 13 2 45 0 68 -1 12 -11 18 -38 20 -21 1 -41 6
-46 11 -6 6 -10 47 -11 92 l-1 82 65 68 c36 37 68 64 71 60 4 -3 32 -55 64
-116 32 -60 66 -125 77 -143 24 -42 23 -52 -4 -52 -36 0 -45 -12 -46 -57 l-2
-43 200 0 200 0 0 45 c0 47 -1 47 -64 57 -16 3 -81 105 -211 333 -12 22 -33
57 -45 79 l-23 38 90 89 c68 66 98 90 124 94 92 15 89 13 89 61 l0 44 -197 -2
-197 -3 1 -38 c1 -46 2 -47 52 -54 23 -3 43 -9 45 -12 3 -4 -62 -76 -142 -160
l-147 -153 3 397 c2 371 1 398 -15 411 -20 15 -46 14 -193 -4z"/>
<path d="M14162 11616 c-4 -6 -19 -48 -33 -94 -32 -97 -52 -132 -79 -132 -10
0 -22 -4 -25 -10 -3 -5 -14 -10 -24 -10 -14 0 -20 -9 -23 -34 -6 -50 -1 -56
50 -56 l47 0 -1 -298 c0 -163 4 -310 9 -327 13 -40 45 -75 85 -92 53 -22 166
-15 261 17 99 33 113 44 105 79 -13 53 -22 61 -52 50 -15 -6 -54 -13 -87 -16
-104 -8 -99 -22 -103 306 l-3 280 113 3 113 3 0 55 0 55 -112 3 -113 3 -1 57
c-1 31 -2 82 -3 112 l-1 54 -58 1 c-32 1 -61 -3 -65 -9z"/>
<path d="M10328 11405 c-2 -2 -25 -6 -53 -9 -27 -4 -59 -9 -70 -11 -11 -2 -32
-4 -47 -4 -27 -1 -28 -3 -28 -55 l0 -53 45 -13 c25 -7 46 -15 46 -19 1 -3 2
-135 3 -293 1 -250 -1 -288 -14 -289 -19 -1 -74 -10 -76 -12 -4 -4 -6 -33 -5
-59 l1 -28 239 0 239 0 4 23 c8 50 -1 67 -40 69 -20 0 -41 2 -47 3 -5 2 -27 3
-48 4 l-37 1 2 247 3 247 48 24 c59 29 168 37 209 16 15 -8 30 -14 33 -14 3 0
4 51 3 113 l-3 112 -66 0 c-98 0 -174 -46 -256 -154 -9 -13 -11 -1 -9 57 3 65
1 74 -18 85 -20 11 -52 17 -58 12z"/>
<path d="M11280 11394 c-115 -31 -200 -102 -250 -210 -33 -70 -44 -129 -42
-227 3 -200 100 -344 263 -391 53 -15 204 -17 258 -3 47 12 127 60 168 99 176
170 152 553 -42 686 -85 58 -237 78 -355 46z m176 -100 c18 -9 43 -31 54 -49
60 -97 69 -400 15 -505 -31 -60 -76 -90 -136 -90 -88 0 -149 86 -164 230 -7
67 -7 186 0 220 3 14 8 41 11 60 9 50 53 116 89 133 40 21 89 21 131 1z"/>
<path d="M12307 11394 c-74 -18 -207 -79 -207 -95 0 -21 33 -89 43 -89 5 0 42
12 81 26 92 35 235 40 278 11 32 -22 48 -64 48 -123 l0 -44 -55 0 c-30 0 -58
-1 -62 -2 -174 -35 -242 -61 -300 -111 -118 -104 -88 -315 55 -388 35 -18 65
-24 120 -26 85 -2 149 20 211 73 21 19 41 34 43 34 1 0 4 -19 5 -42 3 -63 19
-71 133 -64 135 9 136 9 134 59 -1 23 -2 44 -3 47 0 3 -19 5 -40 3 l-39 -2 0
262 c0 325 -5 359 -70 423 -59 59 -236 82 -375 48z m245 -420 c2 -9 1 -66 -2
-127 l-5 -112 -43 -23 c-113 -62 -209 -17 -213 100 -4 91 59 151 181 171 56 9
79 7 82 -9z"/>
<path d="M13290 11399 c-128 -35 -201 -117 -201 -227 -1 -124 59 -192 241
-272 128 -57 165 -81 184 -118 40 -79 -31 -145 -149 -136 -86 6 -114 26 -137
101 l-19 62 -62 -2 -62 -2 0 -97 -1 -98 46 -15 c105 -34 176 -44 285 -41 96 2
118 6 172 30 100 46 146 114 145 217 0 107 -54 168 -209 240 -166 76 -195 92
-214 119 -37 51 -26 115 23 141 34 18 115 20 157 3 35 -14 40 -21 55 -74 18
-64 27 -69 101 -60 l40 5 -1 85 c-1 47 -2 90 -3 96 -4 34 -302 67 -391 43z"/>
<path d="M16450 11389 c-151 -53 -246 -170 -267 -329 -29 -225 49 -402 209
-476 59 -27 71 -29 183 -28 109 0 125 3 176 27 182 86 261 267 224 517 -8 57
-54 156 -91 196 -41 44 -100 80 -160 97 -74 22 -207 20 -274 -4z m183 -88 c53
-21 92 -88 112 -196 7 -36 7 -220 0 -255 -14 -72 -19 -88 -41 -126 -41 -72
-130 -95 -194 -51 -70 46 -98 136 -98 314 -1 176 31 271 103 307 34 18 82 20
118 7z"/>
<path d="M17478 11405 c-3 -3 -25 -5 -155 -21 l-53 -7 0 -52 0 -51 48 -15 47
-14 0 -292 c0 -161 -2 -293 -5 -294 -3 0 -22 -2 -44 -4 -21 -2 -40 -6 -41 -7
-5 -5 -7 -31 -6 -60 l1 -28 240 0 c132 0 240 3 241 8 7 77 5 82 -31 84 -19 0
-46 2 -60 3 -14 2 -37 3 -53 4 l-27 1 2 247 3 247 47 23 c61 30 152 39 201 18
20 -8 39 -15 42 -15 3 0 4 51 3 113 l-3 112 -67 -1 c-97 -1 -182 -51 -252
-148 -12 -18 -13 -12 -12 51 2 56 -1 75 -14 86 -14 12 -44 18 -52 12z"/>
<path d="M19425 11396 c-134 -42 -195 -111 -196 -224 -2 -112 65 -197 196
-252 223 -92 278 -152 216 -237 -33 -44 -145 -53 -217 -17 -32 17 -40 27 -56
81 l-18 62 -60 0 c-33 0 -61 -4 -61 -7 -1 -4 -2 -48 -3 -99 -2 -107 -11 -99
134 -133 156 -37 319 -22 412 36 74 47 116 149 96 237 -20 88 -66 133 -208
199 -208 96 -233 116 -233 184 0 29 6 42 28 60 33 26 60 33 125 29 66 -4 85
-19 106 -88 l19 -60 48 1 c26 0 53 1 60 1 10 1 12 24 11 94 -1 50 -2 95 -3 98
0 4 -22 12 -48 19 -27 6 -57 14 -68 17 -44 12 -241 11 -280 -1z"/>
<path d="M14679 11393 c-8 -63 5 -93 43 -93 27 0 11 42 233 -635 l33 -100 89
-3 90 -3 18 63 c10 35 20 68 21 73 1 6 23 82 49 170 51 179 53 186 60 235 3
19 7 44 9 55 3 11 5 24 5 29 2 23 11 -5 20 -64 10 -58 35 -146 137 -468 l29
-93 89 3 89 3 34 110 c19 61 47 151 63 200 15 50 44 144 65 210 68 224 62 210
108 219 31 6 33 8 33 51 l0 45 -162 0 -162 0 0 -44 0 -45 54 -11 c47 -10 54
-14 49 -31 -3 -10 -7 -28 -10 -38 -3 -11 -8 -28 -10 -38 -50 -202 -115 -434
-119 -423 -2 8 -11 47 -19 85 -8 39 -31 124 -51 190 -20 66 -46 152 -57 190
-12 39 -28 91 -36 118 l-15 47 -92 0 -92 0 -67 -247 c-71 -265 -98 -379 -89
-388 3 -3 1 -5 -5 -5 -6 0 -15 26 -22 58 -11 57 -65 259 -102 381 -25 83 -24
98 4 99 12 1 31 3 42 6 11 2 23 5 27 5 3 1 6 21 5 46 l-1 45 -193 0 c-106 0
-193 -3 -194 -7z"/>
<path d="M11770 9775 l0 -75 1020 0 1020 0 0 75 0 75 -1020 0 -1020 0 0 -75z"/>
<path d="M13980 9775 l0 -75 1020 0 1020 0 0 75 0 75 -1020 0 -1020 0 0 -75z"/>
<path d="M16220 9775 l0 -75 1020 0 1020 0 0 75 0 75 -1020 0 -1020 0 0 -75z"/>
</g>
</svg>
